#!OML:ASF H:\Pregnant\Project 1\Capture day 1\Session 1\femalepreg.ASF
:FULLY-SPECIFIED
:DEGREES
344
root 3.51052 9.33518 7.73592 45.2435 -5.77312 1.45745
lowerback 7.36306 -0.379147 -3.91343
upperback -6.86809 -1.02711 -0.0268887
thorax -11.4877 -0.177279 2.34525
lowerneck -49.4352 -2.01611 -0.738005
upperneck -2.05021 -3.10916 7.3331
head 5.91688 -0.62831 2.31653
rclavicle -9.34288e-015 1.98785e-015
rhumerus -39.7093 13.6815 -78.2126
rradius 113.432
rwrist -3.42156
rhand -31.9364 -12.9578
rfingers 7.12502
rthumb -5.18732 -42.8743
lclavicle -9.34288e-015 1.98785e-015
lhumerus -39.38 2.49251 70.8222
lradius 104.535
lwrist 14.6432
lhand -37.2404 -28.2502
lfingers 7.12502
lthumb -10.3065 1.47725
rfemur -146.782 -19.6517 33.2703
rtibia 103.17
rfoot -1.33672 5.58727
rtoes -13.9584
lfemur -141.753 17.9175 -34.9428
ltibia 96.8627
lfoot -0.0409411 -12.3469
ltoes -15.9782
345
root 3.51173 9.32389 7.77618 46.2992 -6.22241 1.76134
lowerback 7.04677 -0.36207 -4.36375
upperback -7.0477 -1.06367 -0.149895
thorax -11.4968 -0.161795 2.46695
lowerneck -49.8494 -1.87302 -0.602769
upperneck -2.23367 -2.98763 7.22121
head 5.86999 -0.581823 2.27981
rclavicle 3.97569e-015 1.30204e-014
rhumerus -39.2121 14.0162 -77.8907
rradius 113.796
rwrist -3.54604
rhand -31.7465 -12.8224
rfingers 7.12502
rthumb -5.00398 -42.7433
lclavicle 3.97569e-015 1.30204e-014
lhumerus -38.7467 2.46663 70.1921
lradius 104.373
lwrist 14.6421
lhand -37.3908 -28.3381
lfingers 7.12502
lthumb -10.4516 1.38215
rfemur -148.096 -19.3906 33.2496
rtibia 103.151
rfoot -1.21096 5.78492
rtoes -14.0143
lfemur -142.779 17.6752 -35.7279
ltibia 97.0073
lfoot -0.284928 -12.2219
ltoes -15.9861
346
root 3.5121 9.31657 7.81842 47.3841 -6.60618 1.91842
lowerback 6.69843 -0.339187 -4.68795
upperback -7.23542 -1.06809 -0.227498
thorax -11.4982 -0.138613 2.56094
lowerneck -50.2486 -1.72306 -0.443657
upperneck -2.37702 -2.87168 7.0777
head 5.8347 -0.541624 2.22669
rclavicle -2.01766e-014 3.97569e-016
rhumerus -38.6851 14.3872 -77.5405
rradius 114.136
rwrist -3.62513
rhand -31.5502 -12.6951
rfingers 7.12502
rthumb -4.81437 -42.6204
lclavicle -2.01766e-014 3.97569e-016
lhumerus -38.0818 2.44598 69.556
lradius 104.156
lwrist 14.6901
lhand -37.4825 -28.4284
lfingers 7.12502
lthumb -10.5401 1.28729
rfemur -149.301 -19.0472 33.3302
rtibia 103.096
rfoot -1.13718 5.91847
rtoes -14.0573
lfemur -143.847 17.4938 -36.3817
ltibia 97.1403
lfoot -0.512734 -12.1222
ltoes -15.9695
347
root 3.51177 9.31232 7.86247 48.5042 -6.92201 1.94868
lowerback 6.31135 -0.312591 -4.90088
upperback -7.43322 -1.04571 -0.262284
thorax -11.4896 -0.1094 2.63397
lowerneck -50.6363 -1.56225 -0.259306
upperneck -2.47825 -2.75682 6.89698
head 5.81177 -0.506229 2.15566
rclavicle 5.86415e-015 -7.95139e-016
rhumerus -38.1282 14.7872 -77.1568
rradius 114.456
rwrist -3.66206
rhand -31.3303 -12.5744
rfingers 7.12502
rthumb -4.60211 -42.5044
lclavicle 5.86415e-015 -7.95139e-016
lhumerus -37.3938 2.43608 68.9209
lradius 103.896
lwrist 14.7713
lhand -37.5016 -28.4733
lfingers 7.12502
lthumb -10.5585 1.24147
rfemur -150.42 -18.6339 33.5024
rtibia 103.014
rfoot -1.11013 5.99199
rtoes -14.0811
lfemur -144.958 17.3573 -36.9105
ltibia 97.2603
lfoot -0.718075 -12.0358
ltoes -15.9139
348
root 3.51097 9.31012 7.90787 49.6527 -7.18064 1.89184
lowerback 5.89927 -0.285424 -5.03448
upperback -7.64459 -1.00747 -0.264534
thorax -11.4826 -0.0770171 2.69515
lowerneck -51.0174 -1.40281 -0.0810513
upperneck -2.53606 -2.6442 6.7127
head 5.80394 -0.471734 2.08376
rclavicle -1.2921e-014 2.27608e-014
rhumerus -37.5525 15.2118 -76.7409
rradius 114.762
rwrist -3.66391
rhand -31.0724 -12.4653
rfingers 7.12502
rthumb -4.353 -42.4005
lclavicle -1.2921e-014 2.27608e-014
lhumerus -36.6961 2.43846 68.2901
lradius 103.612
lwrist 14.8656
lhand -37.4443 -28.3951
lfingers 7.12502
lthumb -10.5033 1.32252
rfemur -151.479 -18.1752 33.7379
rtibia 102.913
rfoot -1.12088 6.01947
rtoes -14.0929
lfemur -146.1 17.2436 -37.3443
ltibia 97.3657
lfoot -0.902977 -11.9508
ltoes -15.8038
349
root 3.51024 9.30883 7.95403 50.8219 -7.39338 1.80198
lowerback 5.46572 -0.264615 -5.11995
upperback -7.86842 -0.96912 -0.251974
thorax -11.4768 -0.0474881 2.74544
lowerneck -51.3969 -1.25257 0.0779208
upperneck -2.55218 -2.53758 6.54313
head 5.81195 -0.437448 2.01923
rclavicle -5.36719e-015 2.3556e-014
rhumerus -36.9601 15.6467 -76.2984
rradius 115.055
rwrist -3.63955
rhand -30.758 -12.3707
rfingers 7.12502
rthumb -4.04949 -42.312
lclavicle -5.36719e-015 2.3556e-014
lhumerus -35.9915 2.44815 67.6632
lradius 103.32
lwrist 14.9509
lhand -37.2985 -28.1516
lfingers 7.12502
lthumb -10.3626 1.57305
rfemur -152.515 -17.7123 34.0038
rtibia 102.803
rfoot -1.15345 6.01788
rtoes -14.078
lfemur -147.246 17.1117 -37.717
ltibia 97.4515
lfoot -1.07255 -11.8521
ltoes -15.6525
350
root 3.51035 9.30633 8.0003 52.0151 -7.57037 1.72842
lowerback 5.0104 -0.258742 -5.18208
upperback -8.10859 -0.947066 -0.237371
thorax -11.4752 -0.027272 2.78733
lowerneck -51.7609 -1.11574 0.200543
upperneck -2.54746 -2.43253 6.40744
head 5.82805 -0.399448 1.97234
rclavicle -7.35503e-015 8.84592e-015
rhumerus -36.3544 16.093 -75.8284
rradius 115.341
rwrist -3.61378
rhand -30.3956 -12.306
rfingers 7.12502
rthumb -3.69952 -42.2536
lclavicle -7.35503e-015 8.84592e-015
lhumerus -35.2863 2.4641 67.0434
lradius 103.032
lwrist 15.0079
lhand -37.0806 -27.7164
lfingers 7.12502
lthumb -10.1524 2.01863
rfemur -153.583 -17.2829 34.2799
rtibia 102.695
rfoot -1.18758 6.00997
rtoes -14.0368
lfemur -148.394 16.9171 -38.0585
ltibia 97.519
lfoot -1.22931 -11.7242
ltoes -15.4812
351
root 3.5112 9.30474 8.04618 53.1872 -7.71111 1.66264
lowerback 4.57339 -0.262056 -5.21543
upperback -8.34618 -0.934882 -0.219574
thorax -11.4812 -0.0139018 2.81842
lowerneck -52.1171 -0.995884 0.28949
upperneck -2.52792 -2.33408 6.3039
head 5.85059 -0.360303 1.94134
rclavicle -7.65321e-015 1.82882e-014
rhumerus -35.7279 16.5414 -75.329
rradius 115.617
rwrist -3.60459
rhand -29.9984 -12.2468
rfingers 7.12502
rthumb -3.31591 -42.2008
lclavicle -7.65321e-015 1.82882e-014
lhumerus -34.5729 2.48345 66.4344
lradius 102.756
lwrist 15.0271
lhand -36.7964 -27.1365
lfingers 7.12502
lthumb -9.8782 2.61172
rfemur -154.616 -16.8916 34.5561
rtibia 102.587
rfoot -1.24038 5.98978
rtoes -13.9738
lfemur -149.486 16.6872 -38.3466
ltibia 97.5664
lfoot -1.38462 -11.5707
ltoes -15.2759
352
root 3.5131 9.30414 8.0917 54.3311 -7.8096 1.61251
lowerback 4.1597 -0.27685 -5.21356
upperback -8.57735 -0.935742 -0.199753
thorax -11.493 -0.00977202 2.8342
lowerneck -53.1769 -0.763461 0.582323
upperneck -1.7073 -2.23732 5.99041
head 5.80528 -0.319092 1.87813
rclavicle 1.19271e-015 -1.64991e-014
rhumerus -35.0773 16.9881 -74.8021
rradius 115.881
rwrist -3.61758
rhand -29.6032 -12.1805
rfingers 7.12502
rthumb -2.93424 -42.1401
lclavicle 1.19271e-015 -1.64991e-014
lhumerus -33.8484 2.50304 65.8363
lradius 102.487
lwrist 15.0145
lhand -36.472 -26.5053
lfingers 7.12502
lthumb -9.56526 3.25761
rfemur -155.611 -16.5533 34.8339
rtibia 102.48
rfoot -1.31499 5.96189
rtoes -13.8912
lfemur -150.506 16.414 -38.5738
ltibia 97.5921
lfoot -1.54767 -11.3899
ltoes -15.0716
353
root 3.51578 9.30483 8.13673 55.437 -7.87197 1.56252
lowerback 3.7732 -0.297872 -5.17653
upperback -8.79635 -0.942697 -0.176061
thorax -11.507 -0.0116865 2.83569
lowerneck -53.5274 -0.674526 0.646758
upperneck -1.64695 -2.17192 5.92526
head 5.83925 -0.290611 1.86021
rclavicle -2.18663e-015 -1.02374e-014
rhumerus -34.3972 17.429 -74.2476
rradius 116.127
rwrist -3.65421
rhand -29.2231 -12.0819
rfingers 7.12502
rthumb -2.56714 -42.0462
lclavicle -2.18663e-015 -1.02374e-014
lhumerus -33.1136 2.52001 65.2499
lradius 102.224
lwrist 14.9824
lhand -36.1317 -25.9367
lfingers 7.12502
lthumb -9.23684 3.84101
rfemur -156.549 -16.2514 35.1128
rtibia 102.375
rfoot -1.41471 5.92262
rtoes -13.798
lfemur -151.455 16.1266 -38.7369
ltibia 97.6046
lfoot -1.72286 -11.1908
ltoes -14.8842
354
root 3.51878 9.30667 8.1816 56.5029 -7.9168 1.50359
lowerback 3.41267 -0.318495 -5.12259
upperback -9.00364 -0.948566 -0.147821
thorax -11.5236 -0.0145059 2.8328
lowerneck -53.8684 -0.600085 0.705721
upperneck -1.56851 -2.12434 5.87468
head 5.88026 -0.268502 1.84578
rclavicle 5.96354e-016 -1.08338e-014
rhumerus -33.6925 17.8679 -73.6642
rradius 116.349
rwrist -3.71745
rhand -28.8717 -11.964
rfingers 7.12502
rthumb -2.22783 -41.9321
lclavicle 5.96354e-016 -1.08338e-014
lhumerus -32.3742 2.53112 64.6793
lradius 101.963
lwrist 14.9457
lhand -35.8118 -25.522
lfingers 7.12502
lthumb -8.92824 4.26913
rfemur -157.418 -15.9649 35.3787
rtibia 102.271
rfoot -1.5397 5.87169
rtoes -13.721
lfemur -152.344 15.8508 -38.8577
ltibia 97.6131
lfoot -1.9192 -10.9856
ltoes -14.7449
355
root 3.52203 9.30857 8.22655 57.5466 -7.94537 1.43112
lowerback 3.05421 -0.338846 -5.05126
upperback -9.20424 -0.952204 -0.114012
thorax -11.5341 -0.0178756 2.82591
lowerneck -54.2046 -0.541875 0.752326
upperneck -1.46391 -2.09387 5.84676
head 5.93181 -0.25093 1.83922
rclavicle -4.67144e-015 2.0276e-014
rhumerus -32.9633 18.301 -73.0537
rradius 116.543
rwrist -3.80161
rhand -28.5439 -11.8077
rfingers 7.12502
rthumb -1.91122 -41.7789
lclavicle -4.67144e-015 2.0276e-014
lhumerus -31.6343 2.53225 64.126
lradius 101.702
lwrist 14.9175
lhand -35.5455 -25.3123
lfingers 7.12502
lthumb -8.67122 4.48956
rfemur -158.246 -15.6832 35.6392
rtibia 102.17
rfoot -1.68138 5.81066
rtoes -13.6524
lfemur -153.203 15.5891 -38.9385
ltibia 97.6253
lfoot -2.13314 -10.7744
ltoes -14.661
356
root 3.5246 9.31005 8.2714 58.5821 -7.98414 1.30635
lowerback 2.68316 -0.344083 -4.9812
upperback -9.40215 -0.933714 -0.0695404
thorax -11.5359 -0.0100424 2.82834
lowerneck -54.5261 -0.49672 0.790242
upperneck -1.3395 -2.07682 5.83124
head 5.99072 -0.237803 1.83644
rclavicle 3.57812e-015 1.39149e-014
rhumerus -32.2122 18.7261 -72.4181
rradius 116.708
rwrist -3.91197
rhand -28.229 -11.6504
rfingers 7.12502
rthumb -1.6071 -41.6241
lclavicle 3.57812e-015 1.39149e-014
lhumerus -30.8945 2.51924 63.5908
lradius 101.437
lwrist 14.9096
lhand -35.3514 -25.2862
lfingers 7.12502
lthumb -8.48393 4.52337
rfemur -159.021 -15.3461 35.8845
rtibia 102.069
rfoot -1.83604 5.72784
rtoes -13.6176
lfemur -154.085 15.3973 -39.0044
ltibia 97.6596
lfoot -2.35412 -10.5781
ltoes -14.604
357
root 3.52639 9.31251 8.31567 59.5752 -8.03909 1.13488
lowerback 2.33332 -0.331465 -4.9273
upperback -9.58685 -0.892152 -0.0138974
thorax -11.5377 0.0110666 2.84949
lowerneck -54.8373 -0.467121 0.81568
upperneck -1.1949 -2.07295 5.82152
head 6.05724 -0.229832 1.83551
rclavicle 1.72943e-014 -8.15017e-015
rhumerus -31.4344 19.1376 -71.7527
rradius 116.843
rwrist -4.04571
rhand -27.9073 -11.509
rfingers 7.12502
rthumb -1.29638 -41.4848
lclavicle 1.72943e-014 -8.15017e-015
lhumerus -30.1499 2.49186 63.0823
lradius 101.168
lwrist 14.9227
lhand -35.2374 -25.3871
lfingers 7.12502
lthumb -8.37387 4.42693
rfemur -159.705 -14.9659 36.0966
rtibia 101.964
rfoot -2.0065 5.62438
rtoes -13.6083
lfemur -154.949 15.2855 -39.0625
ltibia 97.7116
lfoot -2.58697 -10.3977
ltoes -14.574
